<svg xmlns="http://www.w3.org/2000/svg" viewBox="0 0 600 1000"><defs><linearGradient id="s" x2="0" y2="1"><stop stop-color="#b1c8b4"/><stop offset=".52" stop-color="#3c8178"/><stop offset="1" stop-color="#173f3e"/></linearGradient></defs><rect width="600" height="1000" fill="url(#s)"/><circle cx="112" cy="160" r="62" fill="#e7c188" opacity=".85"/><g fill="#183f3d" opacity=".88"><circle cx="490" cy="220" r="150"/><circle cx="90" cy="350" r="140"/><circle cx="540" cy="470" r="110"/></g><path d="M95 410h410v42H95zm45-68h320l70 55H70zm20 110h280v420H160z" fill="#1d2f2d"/><path d="M115 535h370v32H115zm18 148h334v30H133zM220 452v420m160-420v420" fill="none" stroke="#d0b57e" stroke-width="18"/><path d="M0 890q180-100 600 0v110H0z" fill="#102d2c"/><g fill="#bd6a51"><circle cx="70" cy="735" r="48"/><circle cx="518" cy="710" r="52"/><circle cx="38" cy="785" r="36"/><circle cx="550" cy="785" r="42"/></g></svg>
